<svg xmlns="http://www.w3.org/2000/svg" data-name="Layer 1" width="409.34065" height="318.39369" viewBox="0 0 409.34065 318.39369" xmlns:xlink="http://www.w3.org/1999/xlink"><path d="M714.59136,412.12531a235.38494,235.38494,0,0,1,61.17644-24.01866,187.29236,187.29236,0,0,1-15.85643-69.64449,347.61149,347.61149,0,0,1-42.65049,1.3611c-15.44253-.45555-21.33358-3.45958-20.4252,13.98039C697.18418,340.4944,711.55553,413.84105,714.59136,412.12531Z" transform="translate(-395.32967 -290.80315)" fill="#4aa9f5"/><path d="M743.49389,558.2109a235.3848,235.3848,0,0,1,61.17644-24.01866,187.29256,187.29256,0,0,1-15.85644-69.64449,347.61139,347.61139,0,0,1-42.65048,1.3611c-15.44254-.45555-21.33358-3.45958-20.4252,13.98039C726.08671,486.58,740.45805,559.92664,743.49389,558.2109Z" transform="translate(-395.32967 -290.80315)" fill="#4aa9f5"/><path d="M480.21676,424.42371c3.5044,13.99983,11.87176,26.408,21.98266,36.70587,6.29183,6.40816,13.46463,12.20605,21.87754,15.34843s18.23775,3.34959,26.08717-1.01368c10.36444-5.76129,15.2078-17.82421,19.09586-29.02676,1.6111-4.642,3.20957-9.43075,2.98773-14.33937-.31472-6.96383-4.22408-13.20122-8.22543-18.90938-7.80677-11.1368-17.11063-22.17412-29.91543-26.75785-11.56751-4.14082-34.29995-4.46645-45.49662,1.76213C476.30169,395.04022,477.10753,412.0025,480.21676,424.42371Z" transform="translate(-395.32967 -290.80315)" fill="#4aa9f5"/><path d="M407.745,502.02845l-.00648-.04362.00085.0155Z" transform="translate(-395.32967 -290.80315)"/><path d="M792.37857,484.12013c-8.64217-15.96723-53.07551-14.21889-69.465-13.19208-14.49719.82014-28.92517,2.73969-43.44167,3.17763-4.66073.04627-9.32146.00626-13.98209-.05435.567-10.16888,1.26817-20.33087,1.59338-30.51143.51892-10.30114.0864-20.64144.52815-30.93812,18.05926-1.05578,36.18464-.56817,54.24061-1.799,13.00687-.05476,17.451-11.06927,20.18992-21.97774a301.6082,301.6082,0,0,0,6.19127-32.09367c1.84833-14.115,2.80487-20.54411,4.40313-33.74394.59375-6.58517,1.93876-13.2804.8539-19.87267-2.03566-10.82526-12.15477-13.28029-21.78393-12.00458-6.86941.58239-13.72236,1.35138-20.591,1.94746-28.16042,2.8365-55.85542,8.94594-83.80792,13.3048.09139-3.38736.25166-6.68228.498-9.84622-.67526,3.33589-1.25564,6.68377-1.77254,10.0394-2.33711.35971-4.67241.73216-7.01376,1.0631q-1.71628.2791-3.43481.54609c1.89079-.01868,3.78157-.035,5.67214-.06442,1.51717-.02378,3.03424-.06432,4.55141-.09277a357.39524,357.39524,0,0,0-3.27517,46.10272c-10.32874.74245-20.07126,2.00976-26.2429,2.572-21.99186,2.14244-44.10653,4.6689-66.22407,3.197-16.2347-.42286-31.575-6.54865-50.34079-10.31812a184.15475,184.15475,0,0,0-63.8893.07292q-3.2463.60373-6.47955,1.27517c4.82981-.189,9.66419-.39229,14.49793-.24518,24.29638.724,46.00835,3.72075,69.69167,11.926,21.6537,8.65851,45.19108,9.96478,68.22917,8.2142,20.27228-1.24067,40.39629-4.18458,60.63737-5.7216-.03906,7.02533-.02643,14.04609-.05191,21.04615.23574,7.0818-.56923,14.30221.69819,21.29877,3.6749,11.43164,21.42455,6.42786,30.50581,6.34412,1.00462-.11686,2.01115-.18872,3.0163-.29093-.00838.79244-.0432,1.5833-.02621,2.37733.67409,19.37455-.37871,38.71662-1.5038,58.05137-9.21012-.11368-18.41876-.1295-27.62378.44759-.46288.02048-.92576.03874-1.38874.05912.43231-3.37059.90357-6.73068,1.44637-10.071q-1.52508,5.0422-2.84042,10.13047c-.58.02462-1.1599.05179-1.73975.07408q.83172.104,1.663.21154a347.63567,347.63567,0,0,0-7.4899,38.30639c-3.645-.93775-7.31159-1.915-10.90073-2.8487a212.033,212.033,0,0,0-33.10635-5.079c-17.4601-1.75259-34.88941.68513-52.30938,1.74187-10.51491.66953-21.05911.53006-31.58123,1.04357-16.07889.64883-32.14759,1.77053-48.24643,1.73327-11.79538.04914-26.20511-.95218-30.98143-3.30882a3.94936,3.94936,0,0,1-.367-.22236l-.02282-.01932c-.273-.36767-.3648-.45418-.352-.39877a13.4491,13.4491,0,0,1-1.01821-1.66513c-.03046-.09149-.07111-.17927-.09775-.27215a14.37627,14.37627,0,0,1-.349-1.74378c.11941.72356.06039,1.11511-.00563-.02812-.02059-.13586-.06389-.26737-.08077-.40376.03269.13384.05859.26439.07992.38826-.00573-.09945-.01135-.18044-.017-.30388-.28371-9.59881.19466-19.21438-.399-28.80778-.93881-16.05033-2.699-32.04325-4.07653-48.06015-1.48894-13.11439-2.90963-26.27315-2.11305-39.49028.39877-10.79426,2.62645-20.78112,5.19175-31.77716A143.54424,143.54424,0,0,0,395.3875,402.2827c-.3786,23.81313,1.18813,47.62711,2.19063,71.41317.29,7.11512.27586,14.2364.24646,21.356.063,4.65712-.32819,9.61334,1.88717,13.872,3.56537,7.73116,12.74619,8.53635,20.22516,9.412a219.35556,219.35556,0,0,0,26.88961,1.13995c14.64249-.11771,29.26237-1.02064,43.89457-1.49488,10.50482-.41543,21.02768-.20772,31.52253-.88585,17.8423-1.0976,35.70584-3.286,53.57086-1.28653,8.52434.9834,15.81056,1.63764,26.75141,4.308,4.37468,1.1236,8.75064,2.30813,13.1406,3.43439-1.12445,9.33557-2.00966,18.70469-2.7744,28.07137-.78852,9.50689-1.38492,19.02874-2.23457,28.53075-.32681,6.23957-1.565,12.55014-.78926,18.782,1.47227,10.14182,12.96452,10.36407,21.06876,10.24456,11.31159.07525,22.59294-.83331,33.89031-1.25384,18.44019-.73449,36.88665-1.60654,55.30073-2.80221,11.53226-1.11564,20.7997-2.93107,28.99034-3.64836,4.28117-.33212,8.575-.46617,12.86751-.541,4.51531.22438,9.4483-.5289,12.36355-4.35133,4.87662-6.08694,6.26419-14.09035,8.09161-21.48112,2.489-10.82908,4.31726-21.79763,6.03068-32.77244,2.32034-15.42283,3.31753-23.55149,4.80583-34.48926C794.27827,500.02537,795.48211,491.59857,792.37857,484.12013ZM627.27284,307.97771c14.96006-.2973,29.91726-.84955,44.8216-2.21611,16.78376-1.47514,33.59025-2.49748,50.42273-3.18686,5.5071-.23372,11.04327-1.00536,16.5509-.509.44993.11.90739.25432,1.24725.36852a12.241,12.241,0,0,1,1.21107.67421c.162.17.29018.30526.37053.391,1.25182,2.64746.51744,10.03016-.44717,17.89962-3.18538,25.49418-8.021,71.071-15.55307,77.8111-10.40239,2.61041-31.83723,1.26848-47.24011,2.12334-2.9194.069-6.42882.28148-10.19054.56074.00891-.072.013-.14414.02218-.21611.68684-6.22747,2.7086-16.16008,2.22852-26.36654-.794-5.55667-2.33689-11.71525-6.42085-15.77257-6.43434-5.60612-20.78441-6.46119-35.20582-5.81713C627.91488,338.51143,626.97925,322.4421,627.27284,307.97771Zm5.47259,95.97012c-.026-.04755-.043-.078-.07228-.13182-.04808-9.229-1.36539-23.31745-2.69395-39.12335,9.48142-.14223,18.57287.04723,24.50548,1.80152.021.00743.04129.01677.06231.02431.492.25452,1.49223.77015,2.23839,1.24311l.014.01125c.05817.065.08853.097.12928.14128,1.57322,2.66826,2.49133,8.01614,2.55183,8.63759.15613,8.80074-1.3171,17.51423-2.23532,26.265C646.21507,403.76761,635.66557,404.68508,632.74543,403.94783Zm-6.77621,70.9919.11771.015c10.24531,1.06035,19.4049,2.50226,28.67542,3.84759-.93032,14.64621.28743,25.67165-4.20306,37.61011-.12344.27458-.2767.59046-.44441.88-.064.06315-.143.13872-.23743.22831-.06783.04542-.12312.08321-.20432.13681-.0708.048-.11909.07812-.18044.11856-6.64577,1.00207-16.29966-.76453-26.58031-3.24938C623.4296,501.21478,624.31884,487.97494,625.96922,474.93973ZM782.72085,504.0949c-1.80354,14.24011-2.869,23.40109-4.65776,35.18586-2.08682,15.44884-7.476,44.24016-11.18518,49.392a8.86982,8.86982,0,0,1-1.07138,1.17274l-.03948.02441c-1.32326.22438-4.00574.03365-7.4154.16229-17.67333.30356-28.999,3.84918-44.56049,4.49738-18.35454.81283-36.682,2.11984-55.04229,2.82249-10.87089.78289-30.44138,1.59433-36.06724.76357a13.59224,13.59224,0,0,1-2.06592-.57528l-.034-.02027c-.31492-.86558-.148-2.50162.12248-7.14357.57794-8.98032,1.06289-17.96935,1.20544-26.96826.21843-12.67709.32171-25.44355.65679-38.18029a117.24617,117.24617,0,0,0,23.69033,3.37166c7.55571.54333,13.06747-3.71969,14.93756-11.03934,2.99178-8.81889,3.06618-18.26889,3.58871-27.4788.08513-3.28494.23213-6.56669.38858-9.848,5.93389.75317,12.08345,1.39989,18.73877,1.82413,34.62268.80539,80.25774-4.69969,97.29465,5.91817a14.22911,14.22911,0,0,1,1.222,1.26647l.03492.05753C783.61837,492.68385,783.28329,497.69315,782.72085,504.0949Z" transform="translate(-395.32967 -290.80315)"/><path d="M592.00026,396.67754a48.82874,48.82874,0,0,0-26.235-11.15366,72.06156,72.06156,0,0,0-30.99013,1.49849c-4.03015,1.03009-8.04087,2.15221-11.966,3.53331.99316-.20273,1.98759-.39856,2.98637-.57221,10.29212-1.92273,22.24-2.85793,31.44547-1.15141,12.03048,2.31482,22.44487,5.69592,30.0666,14.08494,10.89553,10.67326,9.83264,24.56142,4.98329,34.54976-4.56106,8.648-8.23766,10.43434-17.613,16.77283-14.98034,9.45913-27.12195,12.25136-43.99211,12.9261-18.92558.357-39.13354-6.00861-42.39991-19.276-2.33392-11.35-.18489-26.97166,11.50148-38.35946,9.51093-11.1077,24.11733-13.34673,37.49346-10.69577-10.54027-3.44744-22.53212-4.41554-32.74686.574a48.933,48.933,0,0,0-25.49237,52.463c5.00345,17.93008,25.42051,25.06038,42.23283,26.5956,20.47173,1.45529,41.80711-2.76592,59.04028-14.237,7.05037-4.70913,14.36939-9.517,19.01431-16.80213C610.13053,430.39133,608.38685,409.43211,592.00026,396.67754Z" transform="translate(-395.32967 -290.80315)"/><path d="M565.56069,430.32446a123.5499,123.5499,0,0,0-19.71208-5.76544c2.30877-8.28033,4.00341-16.7343,5.619-25.17894a158.94083,158.94083,0,0,0-8.8209,24.54433,227.339,227.339,0,0,0-29.37457-3.26371,182.351,182.351,0,0,0,28.42111,6.97151,134.2325,134.2325,0,0,0-2.88235,16.29414c-.69724,3.83189,2.54885-5.95808,3.12169-7.29524,1.0647-2.79956,2.01083-5.63457,2.88012-8.49176C551.68262,429.17369,558.60775,429.8877,565.56069,430.32446Z" transform="translate(-395.32967 -290.80315)"/><path d="M675.99085,507.51623c22.30774,4.3871,51.17633,7.05993,70.77,8.33266C724.2877,506.92641,699.85015,506.03854,675.99085,507.51623Z" transform="translate(-395.32967 -290.80315)"/><path d="M670.17011,538.07522c13.62036-.99284,27.2404-.1952,40.86214.31226,11.15313.38465,22.30264-.06687,33.44027-.64066C719.98339,533.16675,694.42733,531.239,670.17011,538.07522Z" transform="translate(-395.32967 -290.80315)"/><path d="M667.7448,563.78369c28.41124,2.64937,57.14429,4.1624,85.42773-.57369C724.75419,560.41183,696.08938,559.89842,667.7448,563.78369Z" transform="translate(-395.32967 -290.80315)"/><path d="M721.16685,328.356c-10.11868-2.279-20.32121-4.34836-30.677-5.15874-7.63659-.53071-15.29982-.44962-22.94278-.82525-3.07807-.38645-6.60862-.0485-9.422-1.24842-.00329.15221-.00913.16473.15316.28265,4.45991,2.03907,9.32284,3.0647,14.09725,4.09713,16.57679,3.22911,33.52794,3.88229,50.37762,3.54689.48368-.00626.96747-.0138,1.45073-.0191C723.19085,328.80946,722.17912,328.58115,721.16685,328.356Z" transform="translate(-395.32967 -290.80315)"/><path d="M723.63059,346.61079a180.31444,180.31444,0,0,0-55.39881-6.15274c13.69731,2.56106,27.49991,5.16182,41.42542,6.06582,5.09389.27458,10.19489.35748,15.29483.42562C724.51176,346.83709,724.07139,346.72267,723.63059,346.61079Z" transform="translate(-395.32967 -290.80315)"/><path d="M724.23983,375.46931a170.18079,170.18079,0,0,0-53.37153,2.33933c15.25917.693,30.58574.84286,45.76986-1.04835,3.012-.33944,6.00681-.72175,9.00984-1.13475C725.17854,375.57385,724.7094,375.52015,724.23983,375.46931Z" transform="translate(-395.32967 -290.80315)"/></svg>